<svg width="18" height="18" viewBox="0 0 18 18" fill="none" xmlns="http://www.w3.org/2000/svg">
<path opacity="0.2" d="M9.00702 1.6875C7.51518 1.6875 6.08444 2.28013 5.02954 3.33502C3.97465 4.38992 3.38202 5.82066 3.38202 7.3125C3.38202 12.375 9.00702 16.3125 9.00702 16.3125C9.00702 16.3125 14.632 12.375 14.632 7.3125C14.632 6.57381 14.4865 5.84236 14.2038 5.15991C13.9212 4.47745 13.5068 3.85735 12.9845 3.33502C12.4622 2.81269 11.8421 2.39836 11.1596 2.11568C10.4772 1.83299 9.74571 1.6875 9.00702 1.6875ZM9.00702 9.5625C8.56201 9.5625 8.127 9.43054 7.75699 9.18331C7.38698 8.93607 7.09859 8.58467 6.92829 8.17354C6.75799 7.7624 6.71344 7.31 6.80025 6.87355C6.88707 6.43709 7.10136 6.03618 7.41603 5.72151C7.7307 5.40684 8.13161 5.19255 8.56807 5.10573C9.00452 5.01892 9.45692 5.06347 9.86806 5.23377C10.2792 5.40407 10.6306 5.69246 10.8778 6.06247C11.1251 6.43248 11.257 6.86749 11.257 7.3125C11.257 7.90924 11.02 8.48153 10.598 8.90349C10.1761 9.32545 9.60376 9.5625 9.00702 9.5625Z" fill="white"/>
<path d="M9.00702 4.5C8.45076 4.5 7.90699 4.66495 7.44448 4.97399C6.98197 5.28303 6.62148 5.72229 6.40861 6.2362C6.19574 6.75012 6.14004 7.31562 6.24856 7.86119C6.35708 8.40676 6.62495 8.9079 7.01828 9.30124C7.41162 9.69457 7.91276 9.96244 8.45833 10.071C9.0039 10.1795 9.5694 10.1238 10.0833 9.91091C10.5972 9.69804 11.0365 9.33755 11.3455 8.87504C11.6546 8.41253 11.8195 7.86876 11.8195 7.3125C11.8177 6.56715 11.5208 5.85286 10.9937 5.32581C10.4667 4.79877 9.75237 4.50186 9.00702 4.5ZM9.00702 9C8.67326 9 8.347 8.90103 8.06949 8.7156C7.79199 8.53018 7.5757 8.26663 7.44797 7.95828C7.32025 7.64993 7.28683 7.31063 7.35194 6.98328C7.41706 6.65594 7.57778 6.35526 7.81378 6.11926C8.04978 5.88326 8.35046 5.72254 8.6778 5.65742C9.00515 5.59231 9.34445 5.62573 9.6528 5.75345C9.96115 5.88118 10.2247 6.09747 10.4101 6.37497C10.5955 6.65248 10.6945 6.97874 10.6945 7.3125C10.6927 7.75948 10.5143 8.18763 10.1982 8.5037C9.88215 8.81977 9.454 8.99815 9.00702 9Z" fill="white"/>
<path d="M9.00702 1.125C7.36656 1.12686 5.79383 1.77935 4.63385 2.93933C3.47387 4.09931 2.82138 5.67204 2.81952 7.3125C2.81952 9.52031 3.83905 11.8617 5.77264 14.0766C6.64182 15.0798 7.61791 15.9852 8.68358 16.7766C8.77939 16.8404 8.89192 16.8744 9.00702 16.8744C9.12212 16.8744 9.23465 16.8404 9.33046 16.7766C10.3992 15.9864 11.3778 15.0809 12.2484 14.0766C14.175 11.8617 15.1945 9.52031 15.1945 7.3125C15.1927 5.67204 14.5402 4.09931 13.3802 2.93933C12.2202 1.77935 10.6475 1.12686 9.00702 1.125ZM9.00702 15.6094C7.84686 14.6953 3.94452 11.3344 3.94452 7.3125C3.94452 5.96984 4.47789 4.68217 5.42729 3.73277C6.37669 2.78337 7.66436 2.25 9.00702 2.25C10.3497 2.25 11.6373 2.78337 12.5867 3.73277C13.5361 4.68217 14.0695 5.96984 14.0695 7.3125C14.0695 11.3344 10.1672 14.6953 9.00702 15.6094Z" fill="white"/>
</svg>
